<svg width="68" height="43" xmlns="http://www.w3.org/2000/svg">
  <g>
    <g fill-rule="evenodd" fill="none" >
      <g>
        <g>
          <path fill="#FAD701" id="Fill-6" d="m64.24139,10.86355l-6.43949,0l-0.54329,0l0,-7.10492c0,-2.07582 -1.6828,-3.75863 -3.75861,-3.75863c-2.07581,0 -3.75861,1.68281 -3.75861,3.75863l0,7.10492l-6.98278,0c-2.07581,0 -3.75861,1.68281 -3.75861,3.75863c0,2.07582 1.6828,3.75863 3.75861,3.75863l6.98278,0l0,6.86072c0,2.07582 1.6828,3.75847 3.75861,3.75847c2.07581,0 3.75861,-1.68265 3.75861,-3.75847l0,-6.86072l6.98278,0c2.07581,0 3.75861,-1.68281 3.75861,-3.75863c0,-2.07582 -1.6828,-3.75863 -3.75861,-3.75863"/>
          <path fill="#FFFFFF" id="Fill-9" d="m44,20.54131l-0.00065,0c-3.5871,0.13485 -5.62927,-1.34378 -6.41511,-4.1157l-5.67841,13.49577l-7.06736,-16.79677c-0.80432,-1.90707 -2.57331,-2.108 -3.09909,-2.12461l-0.14981,0c-0.00016,0 -0.00032,0 -0.00032,0l-1.14528,0l-0.0942,0l-5.5153,0l-11.11621,0c-2.05352,0 -3.71826,1.70513 -3.71826,3.80849c0,2.10335 1.66474,3.80849 3.71826,3.80849l5.13933,0l0.00567,20.57453c0,2.10335 1.66474,3.80849 3.71827,3.80849c2.05352,0 3.71826,-1.70514 3.71826,-3.80849l0,-20.57453l0.9718,0c0,0 1.69506,-0.07606 2.38703,1.56082l8.17259,19.42356c0.72212,1.76358 1.58157,3.38801 4.06246,3.39847l0,0.00017c0.00406,0 0.00811,-0.00017 0.01216,-0.00017c0.00406,0 0.00795,0.00017 0.012,0.00017l0.00016,-0.00017c2.4809,-0.01046 3.34035,-1.63472 4.0623,-3.39831l8.01971,-19.06021z"/>
        </g>
      </g>
    </g>
  </g>
</svg>
